<svg id="visual" viewBox="0 0 900 600" width="900" height="600" xmlns="http://www.w3.org/2000/svg" xmlns:xlink="http://www.w3.org/1999/xlink" version="1.1"><rect x="0" y="0" width="900" height="600" fill="#191B25"></rect><defs><linearGradient id="grad1_0" x1="33.3%" y1="0%" x2="100%" y2="100%"><stop offset="20%" stop-color="#191b25" stop-opacity="1"></stop><stop offset="80%" stop-color="#191b25" stop-opacity="1"></stop></linearGradient></defs><defs><linearGradient id="grad2_0" x1="0%" y1="0%" x2="66.7%" y2="100%"><stop offset="20%" stop-color="#191b25" stop-opacity="1"></stop><stop offset="80%" stop-color="#191b25" stop-opacity="1"></stop></linearGradient></defs><g transform="translate(900, 0)"><path d="M0 486.7C-49.9 437.5 -99.8 388.2 -149.2 360.3C-198.7 332.4 -247.8 325.9 -302.6 302.6C-357.5 279.4 -418.1 239.5 -449.7 186.3C-481.3 133 -484 66.5 -486.7 0L0 0Z" fill="#7dcbff"></path></g><g transform="translate(0, 600)"><path d="M0 -486.7C61.5 -466.5 123 -446.2 172.2 -415.7C221.5 -385.3 258.5 -344.7 307.6 -307.6C356.7 -270.5 417.8 -236.9 449.7 -186.3C481.6 -135.6 484.2 -67.8 486.7 0L0 0Z" fill="#7dcbff"></path></g></svg>